<?xml version="1.0" encoding="utf-8"?>
<!-- Generator: Adobe Illustrator 19.0.1, SVG Export Plug-In . SVG Version: 6.00 Build 0)  -->
<svg version="1.1" id="Layer_1" xmlns="http://www.w3.org/2000/svg" xmlns:xlink="http://www.w3.org/1999/xlink" x="0px" y="0px"
	 viewBox="0 0 1300 1300" style="enable-background:new 0 0 1300 1300;" xml:space="preserve">
<style type="text/css">
	.st0{fill:none;}
	.st1{fill:url(#XMLID_25_);}
	.st2{fill:url(#XMLID_26_);}
	.st3{fill:url(#XMLID_27_);}
	.st4{fill:url(#XMLID_28_);}
	.st5{fill:url(#XMLID_31_);}
	.st6{fill:url(#XMLID_32_);}
</style>
<g id="XMLID_14_">
	<path id="XMLID_75_" class="st0" d="M1042.3,649.6c0,216.9-175.8,392.8-392.8,392.8c-162.9,0-302.6-99.2-362.1-240.4
		c-6.7,5.5-13.4,11.1-20,16.7c64.9,146.5,211.6,248.7,382.1,248.7c230.7,0,417.7-187,417.7-417.7c0-93.3-30.6-179.5-82.3-249
		c-8.1,3-16.3,6.1-24.4,9.2C1011.8,476.2,1042.3,559.3,1042.3,649.6z"/>
	<path id="XMLID_78_" class="st0" d="M649.6,231.9c-230.7,0-417.7,187-417.7,417.7c0,60.2,12.7,117.3,35.6,169
		c6.6-5.6,13.3-11.2,20-16.7c-19.7-46.8-30.6-98.3-30.6-152.3c0-216.9,175.8-392.8,392.8-392.8c126.6,0,239.2,59.9,311,152.9
		c8.1-3.1,16.2-6.2,24.4-9.2C908.8,298.2,787,231.9,649.6,231.9z"/>
	<linearGradient id="XMLID_25_" gradientUnits="userSpaceOnUse" x1="32.3057" y1="810.2695" x2="1266.8425" y2="810.2695">
		<stop  offset="0" style="stop-color:#A8AF38"/>
		<stop  offset="0.3646" style="stop-color:#B0B549"/>
		<stop  offset="1" style="stop-color:#C2C470"/>
	</linearGradient>
	<path id="XMLID_79_" class="st1" d="M1266.8,446.9l-66.3-115.4c-72.9,19.6-144.8,42.7-215.6,69c51.7,69.5,82.3,155.7,82.3,249
		c0,230.7-187,417.7-417.7,417.7c-170.6,0-317.2-102.2-382.1-248.7c-57.8,48.6-113.4,100-166.3,153.9l65,113.1
		c34.3-19.7,74-30.6,116.4-30.6c129,0,233.6,104,233.6,234h267.3c0-130,104.6-234,233.6-234c42.2,0,81.8,11,115.9,30.5l133.9-233
		c-70.2-40.3-117.4-116.1-117.4-202.8C1149.4,562.9,1196.7,487.2,1266.8,446.9z"/>
	<linearGradient id="XMLID_26_" gradientUnits="userSpaceOnUse" x1="159.7317" y1="538.9986" x2="899.701" y2="306.6715">
		<stop  offset="0" style="stop-color:#9FC9C6"/>
		<stop  offset="1" style="stop-color:#56AFAE"/>
	</linearGradient>
	<path id="XMLID_80_" class="st2" d="M267.5,818.6c-22.9-51.7-35.6-108.8-35.6-169c0-230.7,187-417.7,417.7-417.7
		c137.4,0,259.3,66.3,335.4,168.7c70.7-26.4,142.7-49.5,215.6-69L1133,214c-34.2,19.6-73.7,31.2-115.9,31.2
		c-129,0-233.6-106-233.6-233.2H516.2c0,127.2-104.6,233.2-233.6,233.2c-42.4,0-82.1-11.5-116.4-31.2L32.3,446.8
		c70.4,40.2,117.9,116,117.9,202.9S102.7,812.4,32.3,852.6l68.9,119.8C154.1,918.6,209.6,867.2,267.5,818.6z"/>
	<linearGradient id="XMLID_27_" gradientUnits="userSpaceOnUse" x1="409.4864" y1="984.0139" x2="946.384" y2="664.6221">
		<stop  offset="0" style="stop-color:#A8AF38"/>
		<stop  offset="0.3646" style="stop-color:#B0B549"/>
		<stop  offset="1" style="stop-color:#C2C470"/>
	</linearGradient>
	<path id="XMLID_81_" class="st3" d="M649.6,1042.4c216.9,0,392.8-175.8,392.8-392.8c0-90.3-30.5-173.5-81.7-239.8
		c-21.2,8.2-42.4,16.6-63.4,25.4c49.8,57.5,79.9,132.4,79.9,214.4c0,180.9-146.7,327.6-327.6,327.6c-142.4,0-263.6-90.9-308.7-217.9
		c-18,14-35.8,28.2-53.4,42.6C347,943.2,486.7,1042.4,649.6,1042.4z"/>
	<linearGradient id="XMLID_28_" gradientUnits="userSpaceOnUse" x1="256.8209" y1="529.4224" x2="1042.3291" y2="529.4224">
		<stop  offset="0" style="stop-color:#9FC9C6"/>
		<stop  offset="1" style="stop-color:#56AFAE"/>
	</linearGradient>
	<path id="XMLID_82_" class="st4" d="M322,649.6c0-180.9,146.7-327.6,327.6-327.6c98.9,0,187.6,43.9,247.7,113.2
		c21-8.8,42.1-17.2,63.4-25.4c-71.8-93-184.4-152.9-311-152.9c-216.9,0-392.8,175.8-392.8,392.8c0,54,10.9,105.5,30.6,152.3
		c17.6-14.5,35.4-28.7,53.4-42.6C328.7,725,322,688.1,322,649.6z"/>
</g>
<g id="XMLID_29_">
	<g id="XMLID_30_">
		<linearGradient id="XMLID_31_" gradientUnits="userSpaceOnUse" x1="459.7726" y1="833.4581" x2="815.8" y2="549.0986">
			<stop  offset="0" style="stop-color:#9FC9C6"/>
			<stop  offset="1" style="stop-color:#56AFAE"/>
		</linearGradient>
		<path id="XMLID_16_" class="st5" d="M781.2,785.8l-285.8-38.2l1.1-8.3h291.4L781.2,785.8z M665.7,642.4c0-8.9,7.2-16.1,16.1-16.1
			h64.6c8.9,0,16.2,7.2,16.2,16.1v32.3c0,8.9-7.2,16.1-16.2,16.1h-64.6c-8.9,0-16.1-7.2-16.1-16.1V642.4z M840.1,588.5
			c-2.6-3.4-6.5-5.7-10.8-6.3l-18.3-4.4H455.8v145.4c0,6.1,3.5,11.2,8.5,14l-3,22.2c-1.2,8.8,5,16.9,13.9,18.1l317.6,42.4
			c0.7,0.1,1.5,0.1,2.2,0.1c7.9,0,14.8-5.8,16-13.8l32.3-205.7C843.8,596.3,842.7,591.9,840.1,588.5L840.1,588.5z"/>
		<linearGradient id="XMLID_32_" gradientUnits="userSpaceOnUse" x1="373.2846" y1="725.1722" x2="729.3119" y2="440.8127">
			<stop  offset="0" style="stop-color:#9FC9C6"/>
			<stop  offset="1" style="stop-color:#56AFAE"/>
		</linearGradient>
		<path id="XMLID_15_" class="st6" d="M811.1,497.1c0-8.9-7.2-16.2-16.2-16.2h-323c-8.9,0-16.2,7.2-16.2,16.2v48.5h355.3V497.1z"/>
	</g>
</g>
</svg>
