<svg id="Layer_1" xmlns="http://www.w3.org/2000/svg" viewBox="0 0 1300 1300"><style>.st0{fill:none}</style><g id="XMLID_14_"><path id="XMLID_75_" class="st0" d="M1042.3 649.6c0 216.9-175.8 392.8-392.8 392.8-162.9 0-302.6-99.2-362.1-240.4-6.7 5.5-13.4 11.1-20 16.7 64.9 146.5 211.6 248.7 382.1 248.7 230.7 0 417.7-187 417.7-417.7 0-93.3-30.6-179.5-82.3-249-8.1 3-16.3 6.1-24.4 9.2 51.3 66.3 81.8 149.4 81.8 239.7z"/><path id="XMLID_78_" class="st0" d="M649.6 231.9c-230.7 0-417.7 187-417.7 417.7 0 60.2 12.7 117.3 35.6 169 6.6-5.6 13.3-11.2 20-16.7-19.7-46.8-30.6-98.3-30.6-152.3 0-216.9 175.8-392.8 392.8-392.8 126.6 0 239.2 59.9 311 152.9 8.1-3.1 16.2-6.2 24.4-9.2C908.8 298.2 787 231.9 649.6 231.9z"/><linearGradient id="XMLID_25_" gradientUnits="userSpaceOnUse" x1="32.306" y1="810.269" x2="1266.842" y2="810.269"><stop offset="0" stop-color="#a8af38"/><stop offset=".365" stop-color="#b0b549"/><stop offset="1" stop-color="#c2c470"/></linearGradient><path id="XMLID_79_" d="M1266.8 446.9l-66.3-115.4c-72.9 19.6-144.8 42.7-215.6 69 51.7 69.5 82.3 155.7 82.3 249 0 230.7-187 417.7-417.7 417.7-170.6 0-317.2-102.2-382.1-248.7-57.8 48.6-113.4 100-166.3 153.9l65 113.1c34.3-19.7 74-30.6 116.4-30.6 129 0 233.6 104 233.6 234h267.3c0-130 104.6-234 233.6-234 42.2 0 81.8 11 115.9 30.5l133.9-233c-70.2-40.3-117.4-116.1-117.4-202.8 0-86.7 47.3-162.4 117.4-202.7z" fill="url(#XMLID_25_)"/><linearGradient id="XMLID_26_" gradientUnits="userSpaceOnUse" x1="159.732" y1="538.999" x2="899.701" y2="306.671"><stop offset="0" stop-color="#9fc9c6"/><stop offset="1" stop-color="#56afae"/></linearGradient><path id="XMLID_80_" d="M267.5 818.6c-22.9-51.7-35.6-108.8-35.6-169 0-230.7 187-417.7 417.7-417.7 137.4 0 259.3 66.3 335.4 168.7 70.7-26.4 142.7-49.5 215.6-69L1133 214c-34.2 19.6-73.7 31.2-115.9 31.2-129 0-233.6-106-233.6-233.2H516.2c0 127.2-104.6 233.2-233.6 233.2-42.4 0-82.1-11.5-116.4-31.2L32.3 446.8c70.4 40.2 117.9 116 117.9 202.9S102.7 812.4 32.3 852.6l68.9 119.8c52.9-53.8 108.4-105.2 166.3-153.8z" fill="url(#XMLID_26_)"/><linearGradient id="XMLID_27_" gradientUnits="userSpaceOnUse" x1="409.486" y1="984.014" x2="946.384" y2="664.622"><stop offset="0" stop-color="#a8af38"/><stop offset=".365" stop-color="#b0b549"/><stop offset="1" stop-color="#c2c470"/></linearGradient><path id="XMLID_81_" d="M649.6 1042.4c216.9 0 392.8-175.8 392.8-392.8 0-90.3-30.5-173.5-81.7-239.8-21.2 8.2-42.4 16.6-63.4 25.4 49.8 57.5 79.9 132.4 79.9 214.4 0 180.9-146.7 327.6-327.6 327.6-142.4 0-263.6-90.9-308.7-217.9-18 14-35.8 28.2-53.4 42.6 59.5 141.3 199.2 240.5 362.1 240.5z" fill="url(#XMLID_27_)"/><linearGradient id="XMLID_28_" gradientUnits="userSpaceOnUse" x1="256.821" y1="529.422" x2="1042.329" y2="529.422"><stop offset="0" stop-color="#9fc9c6"/><stop offset="1" stop-color="#56afae"/></linearGradient><path id="XMLID_82_" d="M322 649.6C322 468.7 468.7 322 649.6 322c98.9 0 187.6 43.9 247.7 113.2 21-8.8 42.1-17.2 63.4-25.4-71.8-93-184.4-152.9-311-152.9-216.9 0-392.8 175.8-392.8 392.8 0 54 10.9 105.5 30.6 152.3 17.6-14.5 35.4-28.7 53.4-42.6C328.7 725 322 688.1 322 649.6z" fill="url(#XMLID_28_)"/></g><g id="XMLID_29_"><g id="XMLID_30_"><linearGradient id="XMLID_31_" gradientUnits="userSpaceOnUse" x1="459.773" y1="833.458" x2="815.8" y2="549.099"><stop offset="0" stop-color="#9fc9c6"/><stop offset="1" stop-color="#56afae"/></linearGradient><path id="XMLID_16_" d="M781.2 785.8l-285.8-38.2 1.1-8.3h291.4l-6.7 46.5zM665.7 642.4c0-8.9 7.2-16.1 16.1-16.1h64.6c8.9 0 16.2 7.2 16.2 16.1v32.3c0 8.9-7.2 16.1-16.2 16.1h-64.6c-8.9 0-16.1-7.2-16.1-16.1v-32.3zm174.4-53.9c-2.6-3.4-6.5-5.7-10.8-6.3l-18.3-4.4H455.8v145.4c0 6.1 3.5 11.2 8.5 14l-3 22.2c-1.2 8.8 5 16.9 13.9 18.1l317.6 42.4c.7.1 1.5.1 2.2.1 7.9 0 14.8-5.8 16-13.8l32.3-205.7c.5-4.2-.6-8.6-3.2-12z" fill="url(#XMLID_31_)"/><linearGradient id="XMLID_32_" gradientUnits="userSpaceOnUse" x1="373.285" y1="725.172" x2="729.312" y2="440.813"><stop offset="0" stop-color="#9fc9c6"/><stop offset="1" stop-color="#56afae"/></linearGradient><path id="XMLID_15_" d="M811.1 497.1c0-8.9-7.2-16.2-16.2-16.2h-323c-8.9 0-16.2 7.2-16.2 16.2v48.5H811v-48.5z" fill="url(#XMLID_32_)"/></g></g></svg>