<svg id="Layer_1" xmlns="http://www.w3.org/2000/svg" viewBox="0 0 1300 1300"><style>.st0{fill:none}</style><path id="XMLID_28_" class="st0" d="M1048.9 649.2c0 220.2-178.5 398.8-398.8 398.8-165.4 0-307.3-100.7-367.7-244.1-6.8 5.6-13.6 11.2-20.3 16.9 65.9 148.8 214.8 252.6 388 252.6 234.2 0 424.1-189.9 424.1-424.1 0-94.8-31.1-182.3-83.6-252.9-8.3 3.1-16.5 6.2-24.7 9.4 52.1 67.3 83 151.7 83 243.4z"/><path id="XMLID_27_" class="st0" d="M650.1 225C415.9 225 226 414.9 226 649.2c0 61.1 12.9 119.1 36.2 171.6 6.7-5.7 13.5-11.3 20.3-16.9-20-47.6-31.1-99.8-31.1-154.7 0-220.2 178.5-398.8 398.8-398.8 128.6 0 242.9 60.8 315.8 155.3 8.2-3.2 16.5-6.3 24.7-9.4C913.4 292.4 789.6 225 650.1 225z"/><linearGradient id="XMLID_24_" gradientUnits="userSpaceOnUse" x1="23.414" y1="812.104" x2="1276.881" y2="812.104"><stop offset="0" stop-color="#a8af38"/><stop offset=".365" stop-color="#b0b549"/><stop offset="1" stop-color="#c2c470"/></linearGradient><path id="XMLID_26_" d="M1276.9 443.4l-67.3-117.2c-74 19.9-147 43.3-218.9 70.1 52.5 70.6 83.6 158.1 83.6 252.9 0 234.2-189.9 424.1-424.1 424.1-173.2 0-322.1-103.8-388-252.6C203.4 870.1 147.1 922.3 93.3 977l66 114.8c34.8-20 75.2-31.2 118.2-31.2 131 0 237.2 105.4 237.2 237.4h271.4c0-132 106.2-237.5 237.2-237.5 42.8 0 83 11.2 117.7 31.1L1276.9 855c-71.3-40.9-119.2-117.9-119.2-205.9-.1-88 47.9-164.8 119.2-205.7z" fill="url(#XMLID_24_)"/><linearGradient id="XMLID_29_" gradientUnits="userSpaceOnUse" x1="152.826" y1="536.956" x2="904.143" y2="301.066"><stop offset="0" stop-color="#9fc9c6"/><stop offset="1" stop-color="#56afae"/></linearGradient><path id="XMLID_25_" d="M262.2 820.8C238.9 768.3 226 710.3 226 649.2 226 414.9 415.9 225 650.1 225c139.5 0 263.2 67.3 340.5 171.3 71.8-26.8 144.9-50.2 218.9-70.1L1141 206.9c-34.7 19.9-74.9 31.8-117.7 31.8C892.3 238.6 786.1 131 786.1 2H514.7c0 129-106.2 236.6-237.2 236.6-43 0-83.4-11.7-118.2-31.8L23.4 443.2C94.9 484 143.1 561 143.1 649.2s-48.2 165.2-119.7 206L93.3 977c53.8-54.8 110.1-106.9 168.9-156.2z" fill="url(#XMLID_29_)"/><linearGradient id="XMLID_30_" gradientUnits="userSpaceOnUse" x1="406.378" y1="988.688" x2="951.508" y2="664.399"><stop offset="0" stop-color="#a8af38"/><stop offset=".365" stop-color="#b0b549"/><stop offset="1" stop-color="#c2c470"/></linearGradient><path id="XMLID_23_" d="M650.1 1048c220.2 0 398.8-178.5 398.8-398.8 0-91.7-31-176.1-83-243.5-21.6 8.3-43 16.9-64.3 25.8 50.5 58.3 81.1 134.4 81.1 217.7 0 183.7-148.9 332.6-332.6 332.6-144.6 0-267.7-92.3-313.5-221.2-18.3 14.2-36.3 28.6-54.2 43.3C342.9 947.3 484.8 1048 650.1 1048z" fill="url(#XMLID_30_)"/><linearGradient id="XMLID_31_" gradientUnits="userSpaceOnUse" x1="251.372" y1="527.126" x2="1048.925" y2="527.126"><stop offset="0" stop-color="#9fc9c6"/><stop offset="1" stop-color="#56afae"/></linearGradient><path id="XMLID_20_" d="M317.5 649.2c0-183.7 148.9-332.6 332.6-332.6 100.4 0 190.5 44.5 251.5 114.9 21.3-8.9 42.8-17.5 64.3-25.8-72.9-94.4-187.2-155.3-315.8-155.3-220.2 0-398.8 178.5-398.8 398.8 0 54.8 11.1 107.1 31.1 154.7 17.9-14.7 35.9-29.1 54.2-43.3-12.3-34.9-19.1-72.3-19.1-111.4z" fill="url(#XMLID_31_)"/><linearGradient id="XMLID_32_" gradientUnits="userSpaceOnUse" x1="632.023" y1="508.73" x2="906.035" y2="265.98"><stop offset="0" stop-color="#9fc9c6"/><stop offset="1" stop-color="#56afae"/></linearGradient><path id="XMLID_17_" d="M637.8 398.3c23.5 49.3-5.2 106.8-42.3 148.2-27.2 30.4-59.6 57.8-83.5 90 83.7-53.9 170.6-102.9 260.1-146.4-35.1-41-81.3-73.7-134.3-91.8z" fill="url(#XMLID_32_)"/><linearGradient id="XMLID_33_" gradientUnits="userSpaceOnUse" x1="477.893" y1="689.213" x2="843.968" y2="689.213"><stop offset="0" stop-color="#9fc9c6"/><stop offset="1" stop-color="#56afae"/></linearGradient><path id="XMLID_16_" d="M505.9 820.3c61.6 86.2 194.7 88.7 271.8 18.1 38.5-35.2 59.1-84.9 64.7-134.8C851 627.4 823.3 549.8 772 490c-89.5 43.5-176.4 92.5-260.1 146.4-8.7 11.7-16.4 24.1-22.2 37.5-20.4 47.4-14.1 103.9 16.2 146.4z" fill="url(#XMLID_33_)"/><linearGradient id="XMLID_34_" gradientUnits="userSpaceOnUse" x1="702.961" y1="809.685" x2="638.406" y2="1052.254"><stop offset="0" stop-color="#9fc9c6"/><stop offset="1" stop-color="#56afae"/></linearGradient><path id="XMLID_15_" d="M707.7 810.3c33.1 3.5 67.2-18.6 77.5-50.3.6 34.9-18.7 69.4-48.8 87.1-24.7 14.5-86.5 24.7-106.9-4.3-9.5-13.5-.9-30.3 12.7-37.1 20.9-10.7 44.2 2.3 65.5 4.6z" fill="url(#XMLID_34_)"/></svg>