<?xml version="1.0" encoding="utf-8"?>
<!-- Generator: Adobe Illustrator 19.0.1, SVG Export Plug-In . SVG Version: 6.00 Build 0)  -->
<svg version="1.1" id="Layer_1" xmlns="http://www.w3.org/2000/svg" xmlns:xlink="http://www.w3.org/1999/xlink" x="0px" y="0px"
	 viewBox="0 0 1300 1300" style="enable-background:new 0 0 1300 1300;" xml:space="preserve">
<style type="text/css">
	.st0{fill:none;}
	.st1{fill:url(#XMLID_24_);}
	.st2{fill:url(#XMLID_29_);}
	.st3{fill:url(#XMLID_30_);}
	.st4{fill:url(#XMLID_31_);}
	.st5{fill:url(#XMLID_32_);}
	.st6{fill:url(#XMLID_33_);}
	.st7{fill:url(#XMLID_34_);}
</style>
<path id="XMLID_28_" class="st0" d="M1048.9,649.2c0,220.2-178.5,398.8-398.8,398.8c-165.4,0-307.3-100.7-367.7-244.1
	c-6.8,5.6-13.6,11.2-20.3,16.9c65.9,148.8,214.8,252.6,388,252.6c234.2,0,424.1-189.9,424.1-424.1c0-94.8-31.1-182.3-83.6-252.9
	c-8.3,3.1-16.5,6.2-24.7,9.4C1018,473.1,1048.9,557.5,1048.9,649.2z"/>
<path id="XMLID_27_" class="st0" d="M650.1,225C415.9,225,226,414.9,226,649.2c0,61.1,12.9,119.1,36.2,171.6
	c6.7-5.7,13.5-11.3,20.3-16.9c-20-47.6-31.1-99.8-31.1-154.7c0-220.2,178.5-398.8,398.8-398.8c128.6,0,242.9,60.8,315.8,155.3
	c8.2-3.2,16.5-6.3,24.7-9.4C913.4,292.4,789.6,225,650.1,225z"/>
<linearGradient id="XMLID_24_" gradientUnits="userSpaceOnUse" x1="23.4138" y1="812.104" x2="1276.8806" y2="812.104">
	<stop  offset="0" style="stop-color:#A8AF38"/>
	<stop  offset="0.3646" style="stop-color:#B0B549"/>
	<stop  offset="1" style="stop-color:#C2C470"/>
</linearGradient>
<path id="XMLID_26_" class="st1" d="M1276.9,443.4l-67.3-117.2c-74,19.9-147,43.3-218.9,70.1c52.5,70.6,83.6,158.1,83.6,252.9
	c0,234.2-189.9,424.1-424.1,424.1c-173.2,0-322.1-103.8-388-252.6C203.4,870.1,147.1,922.3,93.3,977l66,114.8
	c34.8-20,75.2-31.2,118.2-31.2c131,0,237.2,105.4,237.2,237.4h271.4c0-132,106.2-237.5,237.2-237.5c42.8,0,83,11.2,117.7,31.1
	l135.9-236.6c-71.3-40.9-119.2-117.9-119.2-205.9C1157.6,561.1,1205.6,484.3,1276.9,443.4z"/>
<linearGradient id="XMLID_29_" gradientUnits="userSpaceOnUse" x1="152.8255" y1="536.956" x2="904.1425" y2="301.066">
	<stop  offset="0" style="stop-color:#9FC9C6"/>
	<stop  offset="1" style="stop-color:#56AFAE"/>
</linearGradient>
<path id="XMLID_25_" class="st2" d="M262.2,820.8C238.9,768.3,226,710.3,226,649.2C226,414.9,415.9,225,650.1,225
	c139.5,0,263.2,67.3,340.5,171.3c71.8-26.8,144.9-50.2,218.9-70.1L1141,206.9c-34.7,19.9-74.9,31.8-117.7,31.8
	C892.3,238.6,786.1,131,786.1,2H514.7c0,129-106.2,236.6-237.2,236.6c-43,0-83.4-11.7-118.2-31.8L23.4,443.2
	c71.5,40.8,119.7,117.8,119.7,206s-48.2,165.2-119.7,206L93.3,977C147.1,922.2,203.4,870.1,262.2,820.8z"/>
<linearGradient id="XMLID_30_" gradientUnits="userSpaceOnUse" x1="406.3781" y1="988.6879" x2="951.5083" y2="664.3986">
	<stop  offset="0" style="stop-color:#A8AF38"/>
	<stop  offset="0.3646" style="stop-color:#B0B549"/>
	<stop  offset="1" style="stop-color:#C2C470"/>
</linearGradient>
<path id="XMLID_23_" class="st3" d="M650.1,1048c220.2,0,398.8-178.5,398.8-398.8c0-91.7-31-176.1-83-243.5
	c-21.6,8.3-43,16.9-64.3,25.8c50.5,58.3,81.1,134.4,81.1,217.7c0,183.7-148.9,332.6-332.6,332.6c-144.6,0-267.7-92.3-313.5-221.2
	c-18.3,14.2-36.3,28.6-54.2,43.3C342.9,947.3,484.8,1048,650.1,1048z"/>
<linearGradient id="XMLID_31_" gradientUnits="userSpaceOnUse" x1="251.3716" y1="527.1258" x2="1048.9246" y2="527.1258">
	<stop  offset="0" style="stop-color:#9FC9C6"/>
	<stop  offset="1" style="stop-color:#56AFAE"/>
</linearGradient>
<path id="XMLID_20_" class="st4" d="M317.5,649.2c0-183.7,148.9-332.6,332.6-332.6c100.4,0,190.5,44.5,251.5,114.9
	c21.3-8.9,42.8-17.5,64.3-25.8C893,311.3,778.7,250.4,650.1,250.4c-220.2,0-398.8,178.5-398.8,398.8c0,54.8,11.1,107.1,31.1,154.7
	c17.9-14.7,35.9-29.1,54.2-43.3C324.3,725.7,317.5,688.3,317.5,649.2z"/>
<linearGradient id="XMLID_32_" gradientUnits="userSpaceOnUse" x1="632.0228" y1="508.73" x2="906.035" y2="265.9799">
	<stop  offset="0" style="stop-color:#9FC9C6"/>
	<stop  offset="1" style="stop-color:#56AFAE"/>
</linearGradient>
<path id="XMLID_17_" class="st5" d="M637.8,398.3c23.5,49.3-5.2,106.8-42.3,148.2c-27.2,30.4-59.6,57.8-83.5,90
	c83.7-53.9,170.6-102.9,260.1-146.4C737,449.1,690.8,416.4,637.8,398.3z"/>
<linearGradient id="XMLID_33_" gradientUnits="userSpaceOnUse" x1="477.8929" y1="689.2131" x2="843.9685" y2="689.2131">
	<stop  offset="0" style="stop-color:#9FC9C6"/>
	<stop  offset="1" style="stop-color:#56AFAE"/>
</linearGradient>
<path id="XMLID_16_" class="st6" d="M505.9,820.3c61.6,86.2,194.7,88.7,271.8,18.1c38.5-35.2,59.1-84.9,64.7-134.8
	c8.6-76.2-19.1-153.8-70.4-213.6c-89.5,43.5-176.4,92.5-260.1,146.4c-8.7,11.7-16.4,24.1-22.2,37.5
	C469.3,721.3,475.6,777.8,505.9,820.3z"/>
<linearGradient id="XMLID_34_" gradientUnits="userSpaceOnUse" x1="702.9613" y1="809.6852" x2="638.4057" y2="1052.254">
	<stop  offset="0" style="stop-color:#9FC9C6"/>
	<stop  offset="1" style="stop-color:#56AFAE"/>
</linearGradient>
<path id="XMLID_15_" class="st7" d="M707.7,810.3c33.1,3.5,67.2-18.6,77.5-50.3c0.6,34.9-18.7,69.4-48.8,87.1
	c-24.7,14.5-86.5,24.7-106.9-4.3c-9.5-13.5-0.9-30.3,12.7-37.1C663.1,795,686.4,808,707.7,810.3z"/>
</svg>
