<svg xmlns="http://www.w3.org/2000/svg" fill="#f0eedc" viewBox="-247 358.9 100 125"><path d="M-205.1 433.938c2.5 2.6 5.5 4.2 8.3 4.5 2.9.3 6-.7 9.3-4.5 1-1.2 2.2-2.5 4.1-3.2 1.9-.6 4.3-.2 6.7 1.1 4.7 3.6 9.6 7.2 14.2 10.9 2.2 2.2 2.8 5.1 2.1 7.4-.7 2.3-2.2 4-3.7 5.5-7.9 8.2-17.2 12.2-26.4 10.8-8.8-1.5-17.4-7.7-26.9-17.2l-11.3-11.3c-9.5-9.5-15.7-18-17.2-26.9-1.8-10.9 4-19.8 10.8-26.4 1.4-1.4 3.2-2.9 5.5-3.7 2.3-.7 5.2-.1 7.4 2.1 3.7 4.6 7.3 9.5 10.9 14.2 1.3 2.5 1.7 4.8 1.1 6.7-.6 1.9-2 3.1-3.2 4.1-3.8 3.4-4.7 6.4-4.5 9.3.3 2.8 1.9 5.8 4.5 8.3m-3 3.5c-3.1-3-5.5-6.8-5.9-11.1-.4-4.4 1.4-9.1 6-13.2 1.1-1 1.7-1.7 1.9-2.2.2-.5.2-1.2-.7-3l-10.1-13.3c-1.3-1.3-1.8-1.3-2.8-1-1 .3-2.4 1.3-3.6 2.6-8.2 8.2-10.7 15.1-9.5 22.3 1.3 7.2 6.7 15.2 15.9 24.4l11.3 11.3c9.2 9.2 17.2 14.7 24.4 15.9 7.2 1.3 14.2-1.3 22.3-9.5 1.2-1.3 2.3-2.6 2.6-3.6.3-1 .3-1.5-1-2.8l-13.3-10.1c-1.8-.9-2.5-.9-3-.7-.5.2-1.2.8-2.2 1.9-4.1 4.6-8.8 6.4-13.2 6-4.3-.4-8.1-2.8-11.1-5.9M-202.8 373.438c.1 1.2 1.2 2.2 2.4 2.2 26.5 0 47.9 21.4 47.9 47.9 0 1.2 1.1 2.3 2.3 2.3 1.2 0 2.3-1.1 2.3-2.3 0-28.9-23.5-52.5-52.5-52.5-1.4 0-2.4 1.2-2.4 2.4zm0 13.7c.1 1.2 1.2 2.2 2.4 2.2 18.9 0 34.2 15.3 34.2 34.2 0 1.2 1.1 2.3 2.3 2.3 1.2 0 2.3-1.1 2.3-2.3 0-21.4-17.4-38.8-38.8-38.8-1.4 0-2.4 1.3-2.4 2.4z"/></svg>