<?xml version="1.0" encoding="utf-8"?>
<!-- Generator: Adobe Illustrator 19.0.1, SVG Export Plug-In . SVG Version: 6.00 Build 0)  -->
<svg version="1.1" id="Слой_1" xmlns="http://www.w3.org/2000/svg" xmlns:xlink="http://www.w3.org/1999/xlink" x="0px" y="0px"
	 viewBox="-247 358.9 100 125" style="enable-background:new -247 358.9 100 125;" xml:space="preserve">
<g transform="translate(0,-952.36218)">
	<g transform="translate(-926.99994,1103)">
		<path d="M721.9,283.3c2.5,2.6,5.5,4.2,8.3,4.5c2.9,0.3,6-0.7,9.3-4.5c1-1.2,2.2-2.5,4.1-3.2c1.9-0.6,4.3-0.2,6.7,1.1
			c4.7,3.6,9.6,7.2,14.2,10.9c2.2,2.2,2.8,5.1,2.1,7.4c-0.7,2.3-2.2,4-3.7,5.5c-7.9,8.2-17.2,12.2-26.4,10.8
			c-8.8-1.5-17.4-7.7-26.9-17.2c-4.1-4.1-7.3-7.3-11.3-11.3c-9.5-9.5-15.7-18-17.2-26.9c-1.8-10.9,4-19.8,10.8-26.4
			c1.4-1.4,3.2-2.9,5.5-3.7c2.3-0.7,5.2-0.1,7.4,2.1c3.7,4.6,7.3,9.5,10.9,14.2c1.3,2.5,1.7,4.8,1.1,6.7c-0.6,1.9-2,3.1-3.2,4.1
			c-3.8,3.4-4.7,6.4-4.5,9.3c0.3,2.8,1.9,5.8,4.5,8.3 M710.6,278.5c-3.1-3-5.5-6.8-5.9-11.1c-0.4-4.4,1.4-9.1,6-13.2
			c1.1-1,1.7-1.7,1.9-2.2c0.2-0.5,0.2-1.2-0.7-3l-10.1-13.3c-1.3-1.3-1.8-1.3-2.8-1c-1,0.3-2.4,1.3-3.6,2.6
			c-8.2,8.2-10.7,15.1-9.5,22.3c1.3,7.2,6.7,15.2,15.9,24.4c3.8,3.8,7.9,7.9,11.3,11.3c9.2,9.2,17.2,14.7,24.4,15.9
			c7.2,1.3,14.2-1.3,22.3-9.5c1.2-1.3,2.3-2.6,2.6-3.6c0.3-1,0.3-1.5-1-2.8l-13.3-10.1c-1.8-0.9-2.5-0.9-3-0.7
			c-0.5,0.2-1.2,0.8-2.2,1.9c-4.1,4.6-8.8,6.4-13.2,6c-4.3-0.4-8.1-2.8-11.1-5.9"/>
		<path d="M724.2,222.8c0.1,1.2,1.2,2.2,2.4,2.2c26.5,0,47.9,21.4,47.9,47.9c0,1.2,1.1,2.3,2.3,2.3c1.2,0,2.3-1.1,2.3-2.3
			c0-28.9-23.5-52.5-52.5-52.5C725.2,220.4,724.2,221.6,724.2,222.8z M724.2,236.5c0.1,1.2,1.2,2.2,2.4,2.2
			c18.9,0,34.2,15.3,34.2,34.2c0,1.2,1.1,2.3,2.3,2.3c1.2,0,2.3-1.1,2.3-2.3c0-21.4-17.4-38.8-38.8-38.8
			C725.2,234.1,724.2,235.4,724.2,236.5L724.2,236.5z"/>
	</g>
</g>
</svg>
